<svg width="24" height="21" viewBox="0 0 24 21" fill="none" xmlns="http://www.w3.org/2000/svg">
<path d="M11.1953 20.7137L1.97195 11.6565C1.57946 11.2953 1.27108 10.8785 0.990735 10.434C-0.523133 7.96134 -0.130648 4.79409 1.97195 2.73816C3.17743 1.5435 4.80344 0.876709 6.51355 0.876709C9.20487 0.876709 10.8869 2.43255 11.5878 3.3216C12.2887 2.43255 13.9707 0.876709 16.6621 0.876709C18.3722 0.876709 19.9982 1.5435 21.2037 2.73816C23.2782 4.79409 23.6987 7.96134 22.1849 10.434C21.9045 10.8785 21.5962 11.2953 21.2037 11.6565L11.9803 20.7137C11.756 20.9359 11.4196 20.9359 11.1953 20.7137ZM6.51355 1.98802C5.08378 1.98802 3.76616 2.54368 2.75691 3.51608C1.0468 5.21083 0.710389 7.82242 1.94391 9.85057C2.16819 10.2117 2.44853 10.5729 2.75691 10.8785L11.5878 19.5468L20.4187 10.8785C20.7271 10.5729 21.0074 10.2395 21.2317 9.85057C22.4652 7.79464 22.1568 5.18305 20.4187 3.51608C19.4095 2.54368 18.0638 1.98802 16.6621 1.98802C14.6436 1.98802 12.9615 3.07155 12.0644 4.57183C11.8401 4.93301 11.3075 4.93301 11.0832 4.57183C10.2141 3.07155 8.53204 1.98802 6.51355 1.98802Z" fill="#282729"/>
</svg>
