<svg width="19" height="21" viewBox="0 0 19 21" fill="none" xmlns="http://www.w3.org/2000/svg">
<path d="M17.6276 20.0821C17.6276 16.371 13.9357 13.3696 9.39029 13.3696C4.84491 13.3696 1.15298 16.371 1.15298 20.0821M9.39029 10.4927C10.6619 10.4927 11.8815 9.98758 12.7807 9.0884C13.6798 8.18921 14.185 6.96966 14.185 5.69803C14.185 4.42639 13.6798 3.20684 12.7807 2.30766C11.8815 1.40848 10.6619 0.90332 9.39029 0.90332C8.11866 0.90332 6.8991 1.40848 5.99992 2.30766C5.10074 3.20684 4.59558 4.42639 4.59558 5.69803C4.59558 6.96966 5.10074 8.18921 5.99992 9.0884C6.8991 9.98758 8.11866 10.4927 9.39029 10.4927V10.4927Z" stroke="#282729" stroke-linecap="round" stroke-linejoin="round"/>
</svg>
