<svg width="19" height="19" viewBox="0 0 19 19" fill="none" xmlns="http://www.w3.org/2000/svg">
<g clip-path="url(#clip0_14_569)">
<path fill-rule="evenodd" clip-rule="evenodd" d="M11.8572 13.1047C10.8517 13.8489 13.9784 10.6516 13.0886 11.867C13.1109 11.8652 13.0696 11.9326 12.9313 12.1015C12.9313 12.1015 15.3075 14.4617 16.4739 15.6628C16.8788 16.1007 16.1482 16.9747 15.6519 16.5184C14.5956 15.4936 12.0962 12.9467 12.0923 12.9426L11.8572 13.1047V13.1047Z" fill="black"/>
<path d="M8.36565 14.2981C9.89456 14.2833 11.408 13.65 12.4964 12.5744C13.789 11.297 14.4546 9.40709 14.2224 7.60268C13.8246 4.51073 11.2827 2.41241 8.32765 2.41241C6.08239 2.41241 3.90036 3.81693 2.94323 5.85349C2.21054 7.41268 2.20906 9.29516 2.94323 10.857C3.89353 12.8793 6.03993 14.2764 8.28936 14.2981C8.31489 14.2981 8.34042 14.2981 8.36565 14.2981V14.2981ZM8.29559 13.3074C6.01232 13.2855 3.88195 11.5196 3.45831 9.25568C3.15965 7.65968 3.72342 5.93246 4.89786 4.79899C6.26882 3.47523 8.42384 3.03199 10.2158 3.7822C11.8189 4.45343 13.0189 6.01202 13.24 7.72915C13.4295 9.20105 12.9013 10.7436 11.8634 11.8061C10.9529 12.7383 9.67606 13.2947 8.35942 13.3074C8.33804 13.3074 8.31697 13.3074 8.29559 13.3074V13.3074Z" fill="black"/>
</g>
<defs>
<clipPath id="clip0_14_569">
<rect width="19" height="19" fill="white"/>
</clipPath>
</defs>
</svg>
