<svg width="20" height="20" viewBox="0 0 20 20" fill="none" xmlns="http://www.w3.org/2000/svg">
<path d="M10.3319 14.8386C11.7146 14.8386 13.0407 14.2893 14.0184 13.3116C14.9961 12.3338 15.5454 11.0078 15.5454 9.62504C15.5454 8.24232 14.9961 6.91624 14.0184 5.93851C13.0407 4.96078 11.7146 4.4115 10.3319 4.4115C8.94917 4.4115 7.62309 4.96078 6.64536 5.93851C5.66763 6.91624 5.11835 8.24232 5.11835 9.62504C5.11835 11.0078 5.66763 12.3338 6.64536 13.3116C7.62309 14.2893 8.94917 14.8386 10.3319 14.8386Z" stroke="black" stroke-width="0.5" stroke-linecap="round" stroke-linejoin="round"/>
<path d="M16.0588 15.352L15.9545 15.2477M15.9545 4.00248L16.0588 3.89821M4.60505 15.352L4.70933 15.2477M10.3319 1.66841V1.60425M10.3319 17.6459V17.5817M2.37526 9.62508H2.3111M18.3528 9.62508H18.2886M4.70933 4.00248L4.60505 3.89821" stroke="black" stroke-linecap="round" stroke-linejoin="round"/>
</svg>
