<svg width="47" height="25" viewBox="0 0 47 25" fill="none" xmlns="http://www.w3.org/2000/svg">
<rect x="1.20691" y="0.5" width="45.2931" height="23.3648" rx="11.6824" fill="white" stroke="#E8C9F0"/>
<circle cx="12.8893" cy="12.1824" r="10.9642" fill="#E8C9F0"/>
<g clip-path="url(#clip0_14_580)">
<path d="M12.2802 15.2026C13.2427 15.2026 14.1659 14.8203 14.8465 14.1396C15.5271 13.459 15.9095 12.5359 15.9095 11.5733C15.9095 10.6107 15.5271 9.68761 14.8465 9.00698C14.1659 8.32635 13.2427 7.94397 12.2802 7.94397C11.3176 7.94397 10.3945 8.32635 9.71386 9.00698C9.03322 9.68761 8.65085 10.6107 8.65085 11.5733C8.65085 12.5359 9.03322 13.459 9.71386 14.1396C10.3945 14.8203 11.3176 15.2026 12.2802 15.2026Z" stroke="white" stroke-width="0.5" stroke-linecap="round" stroke-linejoin="round"/>
<path d="M16.2669 15.56L16.1943 15.4874M16.1943 7.65918L16.2669 7.58659M8.2935 15.56L8.36609 15.4874M12.2802 6.03435V5.98969M12.2802 17.1569V17.1122M6.74126 11.5733H6.69659M17.8638 11.5733H17.8191M8.36609 7.65918L8.2935 7.58659" stroke="white" stroke-linecap="round" stroke-linejoin="round"/>
</g>
<path d="M29.8598 11.8078C30.0608 14.6834 32.5009 17.0229 35.4211 17.1513C37.4814 17.2406 39.324 16.2803 40.4296 14.7671C40.8874 14.1473 40.6418 13.7342 39.8768 13.8737C39.5027 13.9407 39.1174 13.9687 38.7154 13.9519C35.985 13.8402 33.7516 11.5565 33.7404 8.85967C33.7348 8.1338 33.8856 7.44702 34.1592 6.82166C34.4607 6.12929 34.0978 5.79986 33.3998 6.09579C31.1887 7.02825 29.6756 9.25611 29.8598 11.8078Z" stroke="black" stroke-width="0.5" stroke-linecap="round" stroke-linejoin="round"/>
<defs>
<clipPath id="clip0_14_580">
<rect width="13.4006" height="13.4006" fill="white" transform="translate(5.57986 4.87299)"/>
</clipPath>
</defs>
</svg>
